<svg xmlns="http://www.w3.org/2000/svg" width="48" height="48" viewBox="0 0 48 48">
  <g id="Group_7131" data-name="Group 7131" transform="translate(-2628 -12447)">
    <rect id="Rectangle_3045" data-name="Rectangle 3045" width="48" height="48" rx="4" transform="translate(2628 12447)" fill="#fff" opacity="0.24"/>
    <g id="Group_7114" data-name="Group 7114" transform="translate(2636 12457)">
      <path id="Path_5102" data-name="Path 5102" d="M26128.121,7709.027a4.736,4.736,0,0,1-4.461,3.1,4.636,4.636,0,1,1,0-9.271,4.737,4.737,0,0,1,4.461,3.1h6.613a2.383,2.383,0,0,1,2.4,2.359v7.41h4.641a4.74,4.74,0,0,1,4.461-3.1,4.636,4.636,0,1,1,0,9.27,4.738,4.738,0,0,1-4.461-3.1h-4.641v7.407a2.383,2.383,0,0,1-2.4,2.361h-2.543a4.636,4.636,0,1,1,0-3.062h1.3a.537.537,0,0,0,.535-.52v-15.437a.536.536,0,0,0-.535-.521Z" transform="translate(-26118.961 -7702.861)" fill="#fff"/>
    </g>
  </g>
</svg>
