<svg width="172" height="35" viewBox="0 0 172 35" fill="none" xmlns="http://www.w3.org/2000/svg">
<g clip-path="url(#clip0_1214_7994)">
<path d="M52.2807 10.2273H55.4939V24.4626H52.2807V18.4234H46.8846V24.4626H43.6714V10.2273H46.8846V15.6705H52.2807V10.2273Z" fill="#673DE6"/>
<path fill-rule="evenodd" clip-rule="evenodd" d="M73.3455 20.4698C73.7064 19.5429 73.8878 18.467 73.8878 17.2443C73.8878 16.0209 73.7037 14.9455 73.3349 14.0182C72.9665 13.0903 72.4611 12.3103 71.8199 11.6781C71.1783 11.046 70.4277 10.5721 69.568 10.2559C68.7077 9.93938 67.7933 9.78113 66.8245 9.78113C65.8826 9.78113 64.9848 9.93938 64.1323 10.2559C63.2789 10.5721 62.5279 11.046 61.8801 11.6781C61.2317 12.3103 60.7161 13.0903 60.3341 14.0182C59.952 14.9455 59.7607 16.0209 59.7607 17.2443C59.7607 18.467 59.9454 19.5429 60.3138 20.4698C60.6826 21.3977 61.187 22.1744 61.8288 22.7992C62.4702 23.425 63.2211 23.8954 64.0811 24.2114C64.941 24.5279 65.8551 24.6858 66.8245 24.6858C67.8205 24.6858 68.7523 24.5279 69.6189 24.2114C70.4855 23.8954 71.233 23.425 71.8608 22.7992C72.4883 22.1744 72.9833 21.3977 73.3455 20.4698ZM63.3129 19.1404C63.1423 18.577 63.0573 17.9448 63.0573 17.2443C63.0573 16.5572 63.1423 15.9285 63.3129 15.3578C63.4836 14.7875 63.7294 14.2998 64.0504 13.8945C64.3705 13.489 64.7633 13.1727 65.2276 12.9459C65.6914 12.7193 66.2236 12.606 66.8245 12.606C67.4112 12.606 67.9401 12.7159 68.4114 12.9358C68.8817 13.1552 69.278 13.4682 69.5983 13.8735C69.919 14.2793 70.1652 14.7668 70.3357 15.337C70.5064 15.9075 70.5918 16.543 70.5918 17.2443C70.5918 17.9448 70.5064 18.577 70.3357 19.1404C70.1652 19.7043 69.919 20.1885 69.5983 20.5938C69.278 20.9996 68.8817 21.3119 68.4114 21.5315C67.9401 21.752 67.4112 21.8621 66.8245 21.8621C66.2236 21.8621 65.6914 21.752 65.2276 21.5315C64.7633 21.3119 64.3705 20.9996 64.0504 20.5938C63.7294 20.1885 63.4836 19.7043 63.3129 19.1404Z" fill="#673DE6"/>
<path d="M81.9189 21.9442C82.3694 21.9442 82.7412 21.9068 83.0346 21.8307C83.3281 21.7554 83.5637 21.6525 83.7409 21.5212C83.9181 21.3912 84.0413 21.2366 84.1097 21.0579C84.178 20.8795 84.2121 20.68 84.2121 20.4601C84.2121 19.993 83.9934 19.6042 83.5568 19.2955C83.12 18.9859 82.3694 18.6529 81.3049 18.2949C80.8406 18.1307 80.3765 17.9413 79.9125 17.7286C79.4483 17.5158 79.0321 17.2477 78.6636 16.9246C78.2955 16.6018 77.9949 16.2101 77.763 15.7491C77.5309 15.2891 77.4149 14.7293 77.4149 14.0695C77.4149 13.4097 77.5378 12.8153 77.7833 12.2863C78.0293 11.7571 78.3771 11.3074 78.8277 10.9359C79.2779 10.5646 79.8237 10.2801 80.4652 10.0803C81.1068 9.88143 81.8299 9.78113 82.6355 9.78113C83.5909 9.78113 84.4168 9.8849 85.113 10.0907C85.8087 10.2968 86.3822 10.524 86.8325 10.7713L85.9115 13.3068C85.5153 13.1006 85.075 12.9185 84.5908 12.7602C84.1062 12.6025 83.5227 12.523 82.8405 12.523C82.0759 12.523 81.5265 12.6302 81.1922 12.843C80.8577 13.056 80.6903 13.3826 80.6903 13.8219C80.6903 14.0833 80.7521 14.3035 80.875 14.4817C80.9974 14.6604 81.1718 14.8218 81.3967 14.9662C81.6221 15.1104 81.8815 15.2412 82.1752 15.3577C82.4681 15.4746 82.7924 15.5946 83.1478 15.7183C83.8843 15.9936 84.5259 16.2647 85.0721 16.5329C85.6178 16.801 86.0719 17.1136 86.4337 17.4709C86.795 17.828 87.0647 18.2474 87.2425 18.7285C87.4194 19.2099 87.5083 19.7935 87.5083 20.4803C87.5083 21.8133 87.044 22.8477 86.1159 23.5826C85.1877 24.3183 83.7887 24.6861 81.9189 24.6861C81.2912 24.6861 80.7247 24.6481 80.2196 24.5725C79.7146 24.4965 79.2677 24.4039 78.8786 24.2941C78.4899 24.1842 78.1552 24.0676 77.8753 23.9438C77.5955 23.82 77.3602 23.7034 77.1689 23.593L78.0702 21.0371C78.4927 21.2712 79.0149 21.4805 79.6365 21.6655C80.2571 21.8514 81.0183 21.9442 81.9189 21.9442Z" fill="#673DE6"/>
<path d="M101.579 10.1117V12.8536H97.3003V24.3972H94.1066V12.8536H89.8271V10.1117H101.579Z" fill="#673DE6"/>
<path d="M105.127 24.3976H108.321V10.1117H105.127V24.3976Z" fill="#673DE6"/>
<path d="M122.618 24.3973C121.703 22.762 120.714 21.1475 119.649 19.5528C118.584 17.9586 117.451 16.4538 116.25 15.0383V24.3973H113.097V10.1117H115.697C116.147 10.5648 116.646 11.1214 117.192 11.7813C117.738 12.4411 118.293 13.1456 118.86 13.8944C119.427 14.6433 119.99 15.4199 120.549 16.2235C121.109 17.0275 121.634 17.8002 122.126 18.5425V10.1117H125.299V24.3973H122.618Z" fill="#673DE6"/>
<path d="M136.995 12.5854C135.508 12.5854 134.433 13.0011 133.771 13.8324C133.109 14.664 132.778 15.8009 132.778 17.2445C132.778 17.9447 132.86 18.5808 133.024 19.151C133.188 19.7208 133.433 20.212 133.761 20.6246C134.089 21.0369 134.498 21.3566 134.989 21.5836C135.481 21.8101 136.053 21.9234 136.709 21.9234C137.063 21.9234 137.367 21.9164 137.62 21.903C137.872 21.8894 138.094 21.862 138.285 21.8205V16.8527H141.479V23.9233C141.097 24.0745 140.483 24.2357 139.637 24.4072C138.791 24.5788 137.746 24.6652 136.504 24.6652C135.44 24.6652 134.474 24.5001 133.607 24.1706C132.74 23.8403 132 23.3597 131.386 22.7273C130.772 22.0954 130.297 21.3186 129.963 20.3979C129.628 19.4778 129.461 18.4264 129.461 17.2445C129.461 16.0484 129.646 14.9903 130.014 14.0693C130.383 13.1489 130.887 12.3684 131.529 11.7296C132.171 11.0905 132.925 10.6063 133.791 10.2765C134.658 9.94646 135.583 9.78101 136.566 9.78101C137.234 9.78101 137.838 9.82625 138.378 9.91532C138.917 10.005 139.38 10.1079 139.769 10.2249C140.159 10.3414 140.48 10.4616 140.732 10.5855C140.985 10.7092 141.165 10.8057 141.275 10.8743L140.353 13.4508C139.916 13.2173 139.415 13.0149 138.849 12.8428C138.282 12.671 137.665 12.5854 136.995 12.5854Z" fill="#673DE6"/>
<path d="M145.948 24.3973V10.1117H155.53V12.8121H149.143V15.6153H154.814V18.2543H149.143V21.6969H156.001V24.3973H145.948Z" fill="#673DE6"/>
<path fill-rule="evenodd" clip-rule="evenodd" d="M168.905 11.0905C167.772 10.3275 166.141 9.94641 164.012 9.94641C163.424 9.94641 162.759 9.9738 162.016 10.0291C161.272 10.0836 160.552 10.1805 159.856 10.3171V24.3971H163.05V19.1812H164.626C164.9 19.5116 165.175 19.879 165.448 20.2848C165.721 20.6902 166.001 21.1191 166.28 21.5729C166.562 22.0265 166.836 22.494 167.102 22.9748C167.37 23.4559 167.633 23.9299 167.893 24.3971H171.464C171.218 23.8751 170.952 23.3426 170.666 22.7994C170.379 22.2568 170.082 21.7348 169.775 21.2332C169.468 20.7317 169.158 20.2506 168.844 19.79C168.529 19.3296 168.229 18.9209 167.943 18.5632C168.803 18.2063 169.462 17.7145 169.918 17.0896C170.376 16.4645 170.604 15.6495 170.604 14.6467C170.604 13.0385 170.038 11.8532 168.905 11.0905ZM163.572 12.7087C163.756 12.6952 163.964 12.6883 164.196 12.6883C165.22 12.6883 165.993 12.8361 166.52 13.131C167.045 13.4274 167.308 13.9249 167.308 14.6259C167.308 15.3547 167.049 15.8703 166.53 16.1721C166.011 16.4748 165.151 16.6252 163.951 16.6252H163.05V12.75C163.214 12.7367 163.388 12.7229 163.572 12.7087Z" fill="#673DE6"/>
<path fill-rule="evenodd" clip-rule="evenodd" d="M21.7445 0.264282V10.4445L29.969 15.2547V4.45656L21.7445 0.264282ZM0.966053 0.264773V16.2399H27.715L19.5764 11.7667L8.97464 11.7616V4.56403L0.966053 0.264773ZM21.7445 29.9702V22.8346L11.061 22.8272C11.071 22.8747 2.7874 18.2825 2.7874 18.2825L29.969 18.4109V34.3857L21.7445 29.9702ZM0.966105 19.5307L0.96582 29.9702L8.9747 34.1621V24.2269L0.966105 19.5307Z" fill="#673DE6"/>
</g>
<defs>
<clipPath id="clip0_1214_7994">
<rect width="170.51" height="34.219" fill="white" transform="translate(0.96582 0.191162)"/>
</clipPath>
</defs>
</svg>
