<svg width="192" height="40" viewBox="0 0 192 40" fill="none" xmlns="http://www.w3.org/2000/svg">
<g clip-path="url(#clip0_1213_7914)">
<path fill-rule="evenodd" clip-rule="evenodd" d="M168.603 8.02112C170.025 8.02112 170.856 8.49523 170.856 9.91756C170.856 11.3399 170.025 11.9325 168.603 11.9325C167.181 11.9325 166.351 11.3399 166.351 9.91756C166.351 8.49523 167.299 8.02112 168.603 8.02112ZM156.869 13.7105C158.984 13.6102 161.044 14.398 162.552 15.8836C164.06 17.3693 164.879 19.4175 164.811 21.5333C164.811 25.9193 161.255 29.4747 156.869 29.4747C152.484 29.4747 148.927 25.9193 148.927 21.5333C148.859 19.4175 149.678 17.3693 151.186 15.8836C152.694 14.398 154.754 13.6102 156.869 13.7105ZM156.869 25.6819C157.979 25.715 159.054 25.2886 159.839 24.5034C160.624 23.718 161.051 22.6434 161.018 21.5333C161.296 19.9063 160.582 18.2693 159.202 17.3647C157.821 16.46 156.035 16.46 154.654 17.3647C153.275 18.2693 152.561 19.9063 152.839 21.5333C152.807 22.6226 153.217 23.6784 153.976 24.4599C154.736 25.2415 155.78 25.6823 156.869 25.6819ZM166.588 34.4529C169.187 33.1752 170.772 30.4702 170.618 27.5783V14.1846H166.707V27.6969C166.753 29.4457 165.783 31.0632 164.217 31.8453L166.588 34.4529ZM186.494 15.8836C184.986 14.398 182.926 13.6102 180.811 13.7105C178.698 13.6102 176.636 14.398 175.128 15.8836C173.621 17.3693 172.802 19.4175 172.871 21.5333C172.871 25.9193 176.426 29.4747 180.811 29.4747C185.198 29.4747 188.753 25.9193 188.753 21.5333C188.822 19.4175 188.003 17.3693 186.494 15.8836ZM180.811 25.6819C181.922 25.715 182.996 25.2886 183.781 24.5034C184.568 23.718 184.993 22.6434 184.96 21.5333C185.238 19.9063 184.525 18.2693 183.145 17.3647C181.764 16.46 179.979 16.46 178.598 17.3647C177.217 18.2693 176.504 19.9063 176.781 21.5333C176.749 22.6226 177.16 23.6784 177.92 24.4599C178.679 25.2415 179.722 25.6823 180.811 25.6819ZM70.3435 29.3563C72.5666 29.4004 74.7392 28.6902 76.5069 27.3412L75.4401 25.5634C75.1757 25.0427 74.5418 24.8313 74.0178 25.0893C72.8859 25.6933 71.6262 26.0183 70.3435 26.0375C68.3526 26.2465 66.5608 24.8236 66.3134 22.8372H76.3884C76.6066 21.9041 76.7258 20.9506 76.744 19.9925C76.744 16.5552 74.6105 13.8291 70.1064 13.8291C68.0017 13.7262 65.9517 14.5173 64.4617 16.0073C62.9718 17.4972 62.1807 19.5473 62.2835 21.6519C62.2835 25.9189 64.7726 29.3563 70.3435 29.3563ZM72.8325 19.2814C72.8325 18.0961 71.8843 17.0293 69.9879 17.0293C68.2754 16.8801 66.7325 18.063 66.432 19.7555H72.8325C72.8845 19.6008 72.9241 19.4423 72.9511 19.2814H72.8325ZM100.213 14.1846V10.3917H96.6567L96.1826 14.1846H92.3897C92.9926 15.1475 93.4705 16.183 93.812 17.2663H96.1826V24.0225C96.1826 27.4598 98.079 29.2377 100.924 29.2377C102.827 29.315 104.714 28.8636 106.376 27.9339C105.716 27.2249 105.229 26.373 104.954 25.4448C104.123 25.9167 103.183 26.1619 102.228 26.156C100.924 26.156 100.213 25.0893 100.213 23.3113V17.2663H104.717C105.212 16.1607 105.849 15.1246 106.613 14.1846H100.213ZM92.3897 24.3781V20.4666C92.3897 16.7922 90.7303 13.9475 86.9374 13.9475C85.1386 13.8949 83.4067 14.631 82.1963 15.9626V14.1846H78.2848V28.8822H82.1963V22.126C82.1963 19.2814 83.8557 17.5034 85.5151 17.5034C87.1745 17.5034 88.4783 18.8072 88.4783 21.0592V25.3263C88.4783 28.0524 89.6636 29.2377 91.9156 29.2377H92.5083L92.3897 24.3781ZM113.724 13.7105C115.839 13.6102 117.899 14.398 119.408 15.8836C120.916 17.3693 121.734 19.4175 121.666 21.5333C121.666 25.9193 118.111 29.4747 113.724 29.4747C109.339 29.4747 105.784 25.9193 105.784 21.5333C105.715 19.4175 106.533 17.3693 108.041 15.8836C109.55 14.398 111.61 13.6102 113.724 13.7105ZM113.724 25.6819C114.835 25.715 115.909 25.2886 116.694 24.5034C117.48 23.718 117.907 22.6434 117.873 21.5333C118.152 19.9063 117.438 18.2693 116.058 17.3647C114.677 16.46 112.891 16.46 111.511 17.3647C110.13 18.2693 109.416 19.9063 109.695 21.5333C109.663 22.6226 110.073 23.6784 110.833 24.4599C111.592 25.2415 112.635 25.6823 113.724 25.6819ZM60.3871 13.8291C61.4233 13.8795 62.4179 14.2525 63.2317 14.8958C62.4305 15.6567 61.7509 16.5361 61.2168 17.5034H59.9129C58.2535 17.5034 56.7127 18.6887 56.7127 21.7704V28.8822H52.8013V13.9475H53.394C54.8816 13.7118 56.3095 14.6298 56.7127 16.081C57.3506 14.6399 58.8133 13.7434 60.3871 13.8291ZM141.698 13.9475C139.622 13.8424 137.643 14.8318 136.482 16.5552C135.771 14.7773 133.638 13.9475 131.149 13.9475H130.912C129.226 13.9076 127.647 14.7649 126.763 16.1996C126.413 14.7511 125.044 13.787 123.562 13.9475H122.97V28.8822H126.881V21.7704C126.881 18.6887 128.422 17.5034 130.082 17.5034C131.741 17.5034 133.045 18.8072 133.045 20.9407V28.7636H136.957V21.6519C136.957 18.6887 138.379 17.3849 140.038 17.3849C141.698 17.3849 143.001 18.6887 143.001 20.9407V25.2077C143.001 27.9339 144.186 29.1192 146.439 29.1192H147.031V20.4666C147.15 16.7922 145.609 13.9475 141.698 13.9475Z" fill="#6D6D6D"/>
<path d="M35.3913 1.86426H7.21386C3.48701 1.86426 0.46582 4.9038 0.46582 8.65329V32.6496C0.46582 36.3992 3.48701 39.4387 7.21386 39.4387H35.3913C39.1181 39.4387 42.1393 36.3992 42.1393 32.6496V8.65329C42.1393 4.9038 39.1181 1.86426 35.3913 1.86426ZM15.4574 16.0663C13.6834 16.2419 12.1691 17.6831 12.1691 21.0755V29.3181H7.5882V11.8197C7.7918 11.8068 8.00086 11.7995 8.20811 11.7995C10.1732 11.7995 11.4493 12.5896 11.9401 14.4001C12.76 12.787 14.1143 11.5819 16.97 11.5819C17.4245 11.5819 17.7463 11.5948 17.9825 11.624C17.9825 11.624 18.1171 11.6314 18.3243 11.6497L15.812 16.0261C15.6884 16.0335 15.5664 16.0461 15.4574 16.0663ZM35.0169 20.6628H35.0041V29.6955C34.7859 29.7118 34.5697 29.721 34.357 29.721C31.8102 29.721 30.3869 28.3897 30.3869 25.1288V20.138C30.3869 17.5757 29.2289 15.9791 26.9475 15.9791C25.0625 15.9791 23.341 17.486 23.341 20.9938V29.3883H18.711V20.105C18.711 18.0732 18.0057 16.6448 16.5279 16.1603L18.9855 11.8789H18.991C20.7089 12.3324 21.7668 13.437 22.6139 14.7465C23.7717 12.9506 25.8568 11.6867 28.6999 11.6867C33.1663 11.6867 35.0167 15.0792 35.0167 19.3715L35.0169 20.6628Z" fill="#EA292D"/>
</g>
<defs>
<clipPath id="clip0_1213_7914">
<rect width="191.5" height="39.2516" fill="white" transform="translate(0.46582 0.674805)"/>
</clipPath>
</defs>
</svg>
