<svg width="192" height="41" viewBox="0 0 192 41" fill="none" xmlns="http://www.w3.org/2000/svg">
<path fill-rule="evenodd" clip-rule="evenodd" d="M13.1528 33.4074V30.5583C13.1528 30.3154 13.0373 30.088 12.8435 29.9422L12.756 29.8271L12.6505 29.7349C12.3236 29.5493 12.2532 29.5096 12.2204 29.4935L7.09591 26.5776V14.6836L12.0003 11.8967C12.0003 11.8967 12.3438 11.7005 12.3617 11.6898C12.3724 11.6829 12.3792 11.6787 12.3861 11.6743C12.3978 11.667 12.4092 11.6596 12.4398 11.6398L17.5444 8.73833L22.451 11.533C22.7281 11.6909 22.8277 11.7469 22.872 11.7685L27.9939 14.6833V18.5654C27.9939 18.8422 28.144 19.0981 28.3875 19.2366L30.9033 20.6677C31.4285 20.9665 32.0859 20.5934 32.0855 19.9963L32.0846 13.5354C32.0875 13.1866 31.995 12.8367 31.8179 12.529C31.6382 12.2183 31.379 11.9611 31.0622 11.7807L30.7389 11.5987L24.8119 8.22624L24.4889 8.04684L18.6582 4.73095C18.3958 4.54712 18.0217 4.42463 17.6417 4.4065C17.2507 4.38856 16.8649 4.48054 16.5237 4.67387L16.1968 4.86447L10.5937 8.04805C10.4488 8.12919 10.401 8.15598 10.3534 8.18284C10.33 8.19606 10.3065 8.20931 10.2714 8.22908L9.95198 8.4131L4.10186 11.7403C3.8018 11.883 3.51309 12.1441 3.31374 12.4618C3.11216 12.7784 3.00391 13.1467 3.00391 13.524V20.6306L3.00544 27.7259C3.00199 28.0736 3.09442 28.4236 3.27206 28.7321C3.45169 29.0429 3.71161 29.3004 4.02844 29.4804L4.34979 29.6618C8.39566 31.9641 10.2577 33.0236 10.2808 33.0363L10.6028 33.2153L11.9495 34.0661C12.4831 34.3829 13.1528 34.0108 13.1528 33.4074ZM29.1744 22.5636C28.6493 22.2659 27.9932 22.6389 27.9932 23.2355V23.9598L14.995 16.5682L14.5581 16.3177C14.1625 16.093 13.6741 16.1165 13.3055 16.3745L12.9598 16.5666L11.0414 17.6531L10.2681 18.0902C9.70551 18.4102 9.52969 19.1109 9.85919 19.6703L10.2991 20.4168L10.7428 21.1714C11.0687 21.7245 11.7821 21.897 12.3486 21.5709C13.103 21.1425 13.1375 21.1228 13.1704 21.1004C13.1724 21.0989 13.1747 21.0974 13.1769 21.0958L13.9733 20.6452L15.5485 21.5412L15.5472 35.4551C15.5472 36.0844 16.0656 36.595 16.7054 36.595C16.9987 36.595 17.279 36.4862 17.4933 36.2909C18.921 35.1559 18.9223 35.1549 19.2163 34.9211L19.2173 34.9201C19.5184 34.6815 19.677 34.3119 19.6441 33.9346L19.6464 23.8727L28.9944 29.2053C29.5769 29.5356 30.23 29.313 30.6748 28.7536L31.8605 27.5638C32.0045 27.4186 32.0849 27.2243 32.0849 27.0221V24.6614C32.0849 24.3841 31.9345 24.1279 31.6903 23.9895L29.1744 22.5636Z" fill="#0EBAC5"/>
<path fill-rule="evenodd" clip-rule="evenodd" d="M40.479 27.0957C40.3315 27.0957 40.2025 27.0414 40.0918 26.9332C39.9815 26.8247 39.9258 26.6982 39.9258 26.5537V12.4599C39.9258 12.3012 39.9815 12.171 40.0918 12.0699C40.2025 11.9685 40.3315 11.918 40.479 11.918H43.576C43.7384 11.918 43.8709 11.9685 43.9745 12.0699C44.0774 12.171 44.1291 12.3012 44.1291 12.4599V23.6918H50.7659C50.9278 23.6918 51.0645 23.7457 51.1749 23.8542C51.2856 23.9627 51.3409 24.0963 51.3409 24.2554V26.5537C51.3409 26.7128 51.2856 26.843 51.1749 26.9441C51.0645 27.0451 50.9278 27.0957 50.7659 27.0957H40.479ZM52.3356 27.0957C52.2177 27.0957 52.1106 27.0489 52.0149 26.9547C51.9189 26.8607 51.871 26.7559 51.871 26.6403C51.871 26.5538 51.8785 26.4887 51.8931 26.4452L57.0479 12.5468C57.195 12.1276 57.49 11.918 57.9325 11.918H61.3837C61.8259 11.918 62.1209 12.1276 62.2684 12.5468L67.4231 26.4452C67.4377 26.4887 67.4452 26.5538 67.4452 26.6403C67.4452 26.7559 67.397 26.8607 67.3013 26.9547C67.2053 27.0489 67.0985 27.0957 66.9806 27.0957H64.1044C63.7508 27.0957 63.4997 26.9366 63.3526 26.6185L62.5559 24.5156H56.7604L55.9637 26.6185C55.8162 26.9366 55.5655 27.0957 55.2115 27.0957H52.3356ZM57.6896 21.263H61.6273L59.6584 15.7337L57.6896 21.263ZM69.7019 27.0957C69.5397 27.0957 69.4033 27.0452 69.2926 26.9441C69.1822 26.843 69.1269 26.7128 69.1269 26.5538V12.4817C69.1269 12.3229 69.1822 12.189 69.2926 12.0808C69.4033 11.9723 69.5397 11.918 69.7019 11.918H72.2021C72.5703 11.918 72.8363 12.0771 72.9981 12.3949L76.8033 19.0731L80.6306 12.3949C80.7924 12.0771 81.0581 11.918 81.4267 11.918H83.9265C84.089 11.918 84.2251 11.9723 84.3358 12.0808C84.4465 12.189 84.5019 12.3229 84.5019 12.4817V26.5538C84.5019 26.7128 84.4465 26.843 84.3358 26.9441C84.2251 27.0452 84.089 27.0957 83.9265 27.0957H81.117C80.9695 27.0957 80.8406 27.0415 80.7299 26.9333C80.6195 26.8247 80.5642 26.6983 80.5642 26.5538V18.6611L78.175 22.9545C77.9832 23.2869 77.7251 23.4531 77.4004 23.4531H76.2062C75.9109 23.4531 75.6527 23.2869 75.4316 22.9545L73.0646 18.6611V26.5538C73.0646 26.7128 73.0092 26.843 72.8988 26.9441C72.7881 27.0452 72.6517 27.0957 72.4896 27.0957H69.7019ZM88.0632 27.0957C87.9157 27.0957 87.7867 27.0415 87.6764 26.9333C87.5657 26.8247 87.5103 26.6983 87.5103 26.5538V12.4817C87.5103 12.3229 87.5618 12.189 87.665 12.0808C87.7682 11.9722 87.901 11.918 88.0632 11.918H94.8989C96.772 11.918 98.1655 12.2938 99.0801 13.0456C99.9944 13.7972 100.452 14.8668 100.452 16.2545C100.452 16.9484 100.264 17.5484 99.8879 18.054C99.5115 18.56 99.0948 18.9286 98.6376 19.1599C99.2426 19.42 99.7512 19.8501 100.164 20.45C100.577 21.0499 100.784 21.7258 100.784 22.4773C100.784 23.937 100.293 25.0721 99.3123 25.8816C98.3316 26.6908 96.927 27.0957 95.0978 27.0957H88.0632ZM94.4346 17.9235C94.9803 17.9235 95.4006 17.7791 95.6956 17.4898C95.9906 17.2005 96.1384 16.8251 96.1384 16.3625C96.1384 15.9142 95.9945 15.5493 95.7067 15.2674C95.4192 14.9853 94.995 14.8445 94.4346 14.8445H91.6694V17.9235H94.4346ZM94.6339 24.1682C95.2089 24.1682 95.6552 24.0054 95.9724 23.6802C96.2892 23.3553 96.4481 22.9541 96.4481 22.4769C96.4481 21.9855 96.2856 21.5772 95.9613 21.2517C95.6367 20.9267 95.1942 20.764 94.6339 20.764H91.6694V24.1682H94.6339ZM103.705 27.0957C103.557 27.0957 103.428 27.0415 103.318 26.9333C103.207 26.8247 103.152 26.6983 103.152 26.5538V12.4817C103.152 12.3229 103.203 12.189 103.307 12.0808C103.409 11.9722 103.542 11.918 103.705 11.918H109.523C111.705 11.918 113.401 12.4274 114.611 13.4468C115.82 14.4656 116.455 15.9293 116.513 17.8373C116.528 18.2565 116.536 18.813 116.536 19.5069C116.536 20.2007 116.528 20.7498 116.513 21.1547C116.366 25.1152 114.073 27.0957 109.633 27.0957H103.705ZM109.522 23.8429C110.451 23.8429 111.137 23.6262 111.58 23.1924C112.022 22.759 112.258 22.0648 112.287 21.1108C112.317 20.6917 112.332 20.1497 112.332 19.4847C112.332 18.8196 112.317 18.2848 112.287 17.8802C112.258 16.9551 112.003 16.272 111.524 15.8312C111.045 15.3903 110.341 15.1699 109.412 15.1699H107.31V23.8429H109.522ZM118.194 27.0957C118.076 27.0957 117.969 27.0489 117.873 26.9547C117.777 26.8607 117.729 26.7559 117.729 26.6403C117.729 26.5538 117.736 26.4887 117.751 26.4452L122.906 12.5468C123.053 12.1276 123.349 11.918 123.791 11.918H127.242C127.684 11.918 127.979 12.1276 128.127 12.5468L133.281 26.4452C133.296 26.4887 133.303 26.5538 133.303 26.6403C133.303 26.7559 133.255 26.8607 133.16 26.9547C133.064 27.0489 132.957 27.0957 132.838 27.0957H129.963C129.609 27.0957 129.358 26.9366 129.211 26.6185L128.414 24.5156H122.618L121.822 26.6185C121.674 26.9366 121.424 27.0957 121.07 27.0957H118.194ZM123.547 21.263H127.485L125.516 15.7337L123.547 21.263Z" fill="#0EBAC5"/>
<path fill-rule="evenodd" clip-rule="evenodd" d="M137.895 27.312C137.733 27.312 137.597 27.2615 137.486 27.1604C137.375 27.0593 137.32 26.9291 137.32 26.77V15.6684H133.427C133.264 15.6684 133.128 15.6179 133.018 15.5168C132.907 15.4154 132.852 15.2855 132.852 15.1265V12.6979C132.852 12.5392 132.907 12.4053 133.018 12.2971C133.128 12.1885 133.264 12.1343 133.427 12.1343H145.439C145.601 12.1343 145.738 12.1885 145.848 12.2971C145.959 12.4053 146.014 12.5392 146.014 12.6979V15.1265C146.014 15.2855 145.959 15.4154 145.848 15.5168C145.738 15.6179 145.601 15.6684 145.439 15.6684H141.545V26.77C141.545 26.9291 141.49 27.0593 141.38 27.1604C141.269 27.2615 141.133 27.312 140.971 27.312H137.895ZM148.513 27.312C148.366 27.312 148.237 27.2578 148.126 27.1496C148.016 27.041 147.96 26.9145 147.96 26.7701V12.6979C147.96 12.5392 148.012 12.4053 148.115 12.2971C148.219 12.1886 148.351 12.1343 148.513 12.1343H158.955C159.117 12.1343 159.253 12.1886 159.364 12.2971C159.475 12.4053 159.53 12.5392 159.53 12.6979V14.8447C159.53 15.0037 159.475 15.1336 159.364 15.2347C159.253 15.3361 159.117 15.3866 158.955 15.3866H151.965V18.1404H158.468C158.63 18.1404 158.767 18.1947 158.878 18.3029C158.988 18.4114 159.043 18.545 159.043 18.7041V20.6772C159.043 20.8362 158.988 20.9698 158.878 21.0784C158.767 21.1865 158.63 21.2411 158.468 21.2411H151.965V24.0597H159.132C159.294 24.0597 159.431 24.114 159.541 24.2221C159.652 24.3307 159.707 24.4643 159.707 24.6233V26.7701C159.707 26.9291 159.652 27.0593 159.541 27.1604C159.431 27.2615 159.294 27.312 159.132 27.312H148.513ZM168.025 27.5291C166.595 27.5291 165.378 27.327 164.374 26.9221C163.372 26.5175 162.612 25.9826 162.096 25.3173C161.58 24.6529 161.307 23.9299 161.278 23.1492C161.278 23.0193 161.325 22.9108 161.421 22.8239C161.517 22.7375 161.631 22.6941 161.764 22.6941H164.706C164.883 22.6941 165.027 22.7229 165.138 22.7809C165.249 22.8385 165.37 22.9396 165.503 23.0841C165.695 23.431 165.993 23.7166 166.399 23.9407C166.805 24.1649 167.346 24.2768 168.025 24.2768C168.821 24.2768 169.433 24.1574 169.861 23.9193C170.288 23.6806 170.502 23.3519 170.502 22.9325C170.502 22.6292 170.392 22.3797 170.171 22.1846C169.95 21.9893 169.596 21.8157 169.109 21.6641C168.622 21.5125 167.921 21.3426 167.007 21.1547C165.223 20.8078 163.888 20.2801 163.003 19.5716C162.118 18.8635 161.676 17.8515 161.676 16.5363C161.676 15.64 161.93 14.8413 162.439 14.1403C162.948 13.439 163.671 12.8937 164.607 12.5033C165.543 12.113 166.631 11.918 167.87 11.918C169.167 11.918 170.292 12.1384 171.244 12.579C172.195 13.0202 172.925 13.5693 173.434 14.2269C173.943 14.8847 174.212 15.5315 174.241 16.1677C174.241 16.2976 174.197 16.4098 174.108 16.5038C174.02 16.5977 173.909 16.6445 173.777 16.6445H170.679C170.355 16.6445 170.104 16.5146 169.927 16.2542C169.838 15.9507 169.61 15.6943 169.242 15.4847C168.873 15.2751 168.416 15.1703 167.87 15.1703C167.251 15.1703 166.771 15.2788 166.432 15.4955C166.093 15.7123 165.923 16.0304 165.923 16.4495C165.923 16.8687 166.145 17.1977 166.587 17.4361C167.03 17.6748 167.855 17.9166 169.065 18.1625C170.451 18.408 171.553 18.7153 172.372 19.0839C173.19 19.4523 173.795 19.9297 174.186 20.5148C174.577 21.1004 174.772 21.8414 174.772 22.7375C174.772 23.7203 174.484 24.5732 173.909 25.2959C173.334 26.0186 172.538 26.5714 171.52 26.9546C170.502 27.3378 169.337 27.5291 168.025 27.5291ZM180.879 27.312C180.716 27.312 180.579 27.2615 180.469 27.1604C180.358 27.0593 180.303 26.9291 180.303 26.77V15.6684H176.41C176.247 15.6684 176.111 15.6179 176.001 15.5168C175.89 15.4154 175.835 15.2855 175.835 15.1265V12.6979C175.835 12.5392 175.89 12.4053 176.001 12.2971C176.111 12.1885 176.247 12.1343 176.41 12.1343H188.422C188.584 12.1343 188.721 12.1885 188.831 12.2971C188.942 12.4053 188.997 12.5392 188.997 12.6979V15.1265C188.997 15.2855 188.942 15.4154 188.831 15.5168C188.721 15.6179 188.584 15.6684 188.422 15.6684H184.528V26.77C184.528 26.9291 184.473 27.0593 184.362 27.1604C184.252 27.2615 184.116 27.312 183.954 27.312H180.879Z" fill="#0EBAC5"/>
</svg>
