<svg width="137" height="50" viewBox="0 0 137 50" fill="none" xmlns="http://www.w3.org/2000/svg">
<path d="M31.5677 13.5714H31.0183C29.5836 13.5714 28.6923 14.4629 28.6923 15.8975V27.4384C28.6923 32.9101 27.0278 35.1419 22.9468 35.1419C18.8659 35.1419 17.2013 32.8999 17.2013 27.4039V15.8975C17.2013 14.4629 16.3101 13.5714 14.8755 13.5714H14.3258C12.8913 13.5714 12 14.4629 12 15.8975V27.4384C12 35.7737 15.6831 40 22.9468 40C30.2105 40 33.8935 35.7737 33.8935 27.4384V15.8975C33.8935 14.4629 33.0022 13.5714 31.5677 13.5714Z" fill="white"/>
<path d="M40.4665 20.5746H40.0113C38.5411 20.5746 37.6279 21.5007 37.6279 22.991V37.5837C37.6279 39.074 38.5411 40 40.0113 40H40.4665C41.9365 40 42.8497 39.074 42.8497 37.5837V22.991C42.8497 21.5007 41.9365 20.5746 40.4665 20.5746Z" fill="#FA4616"/>
<path d="M46.7726 11.5412C43.4499 11.005 40.8279 8.37061 40.2943 5.03225C40.2842 4.96923 40.2029 4.96923 40.1929 5.03225C39.6592 8.37061 37.0372 11.005 33.7145 11.5412C33.6518 11.5513 33.6518 11.633 33.7145 11.6431C37.0372 12.1792 39.6592 14.8137 40.1929 18.152C40.2029 18.215 40.2842 18.215 40.2943 18.152C40.8279 14.8137 43.4499 12.1792 46.7726 11.6431C46.8353 11.633 46.8353 11.5513 46.7726 11.5412ZM43.5081 11.6176C41.8467 11.8857 40.5357 13.2029 40.2689 14.8721C40.2639 14.9036 40.2232 14.9036 40.2182 14.8721C39.9514 13.2029 38.6404 11.8857 36.9791 11.6176C36.9477 11.6126 36.9477 11.5717 36.9791 11.5666C38.6404 11.2985 39.9514 9.98136 40.2182 8.31218C40.2232 8.28068 40.2639 8.28068 40.2689 8.31218C40.5357 9.98136 41.8467 11.2985 43.5081 11.5666C43.5395 11.5717 43.5395 11.6126 43.5081 11.6176Z" fill="#FA4616"/>
<path d="M48.763 6.32905C47.1017 6.59711 45.7907 7.91433 45.5239 9.58352C45.5188 9.61502 45.4782 9.61502 45.4731 9.58352C45.2063 7.91433 43.8953 6.59711 42.234 6.32905C42.2026 6.324 42.2026 6.28315 42.234 6.27809C43.8953 6.00999 45.2063 4.69281 45.4731 3.02363C45.4782 2.99212 45.5188 2.99212 45.5239 3.02363C45.7907 4.69281 47.1017 6.00999 48.763 6.27809C48.7944 6.28315 48.7944 6.324 48.763 6.32905Z" fill="#FA4616"/>
<path d="M54.2666 13.5714H49.1983C47.7484 13.5714 46.8477 14.4724 46.8477 15.9223V37.6491C46.8477 39.099 47.7484 40 49.1983 40H49.7539C51.2038 40 52.1045 39.099 52.1045 37.6491V32.5061H54.3013C63.0965 32.5061 66.6841 29.7633 66.6841 23.0388C66.6841 16.3142 63.0865 13.5714 54.2666 13.5714ZM61.3579 22.9694C61.3579 26.4288 59.7173 27.5962 54.8566 27.5962H52.1045V18.3772H54.8566C59.7173 18.3772 61.3579 19.5358 61.3579 22.9694Z" fill="white"/>
<path d="M86.2067 18.4615H85.79C84.3402 18.4615 83.4396 19.3624 83.4396 20.8124V20.8154C81.9503 19.091 79.644 18.0798 77.0077 18.0798C74.3218 18.0798 71.893 19.0666 70.1687 20.859C68.2905 22.8107 67.2979 25.6278 67.2979 29.0052C67.2979 32.3973 68.2964 35.2306 70.1855 37.1986C71.9196 39.005 74.3548 40 77.0424 40C79.6287 40 81.9523 38.9762 83.4414 37.2767C83.4414 37.2785 83.4415 37.7665 83.4416 37.7684C83.4898 39.1484 84.3803 40 85.79 40H86.2067C87.6566 40 88.5574 39.0993 88.5574 37.6494V20.8124C88.5574 19.3624 87.6566 18.4615 86.2067 18.4615ZM83.5436 29.0052C83.5436 32.9725 81.4249 35.4372 78.0143 35.4372C74.561 35.4372 72.4157 32.9725 72.4157 29.0052C72.4157 25.059 74.5344 22.6077 77.945 22.6077C81.346 22.6077 83.5436 25.119 83.5436 29.0052Z" fill="white"/>
<path d="M116.469 18.1006C113.747 18.1006 111.805 19.1849 110.589 20.5513V15.9238C110.589 14.4729 109.688 13.5714 108.237 13.5714H107.82C106.37 13.5714 105.468 14.4729 105.468 15.9238V37.6476C105.468 39.0984 106.37 40 107.82 40H108.237C109.688 40 110.589 39.0984 110.589 37.6476V28.9286C110.589 23.3466 113.251 22.7011 115.254 22.7011C118.616 22.7011 119.987 24.3747 119.987 28.4772V37.6476C119.987 39.0984 120.889 40 122.34 40H122.757C124.207 40 125.109 39.0984 125.109 37.6476V28.1644C125.109 21.3924 122.283 18.1006 116.469 18.1006Z" fill="white"/>
<path d="M103.996 37.3411C103.924 36.6419 103.505 35.6429 101.512 35.6429C99.1559 35.6429 98.0344 34.9085 98.0344 30.735V22.7012H101.547C102.995 22.7012 103.895 21.8796 103.895 20.5573C103.895 19.2564 102.995 18.448 101.547 18.448H98.0386V15.9238C98.0386 14.473 97.1319 13.5714 95.6723 13.5714H95.253C93.7935 13.5714 92.8867 14.473 92.8867 15.9238V18.448H92.0792C90.8019 18.448 90.0083 19.2564 90.0083 20.5573C90.0083 21.8796 90.9082 22.7012 92.3567 22.7012H92.8867V31.1866C92.8867 37.3643 95.29 40 100.923 40C100.932 40 100.941 39.9997 100.95 39.9994C101.278 39.9991 101.629 39.994 101.986 39.9622C102.696 39.8948 103.233 39.6445 103.582 39.2172C103.93 38.792 104.069 38.0449 103.996 37.3411Z" fill="white"/>
</svg>
