<svg width="98" height="69" viewBox="0 0 98 69" fill="none" xmlns="http://www.w3.org/2000/svg">
<mask id="mask0_1621_1044" style="mask-type:luminance" maskUnits="userSpaceOnUse" x="0" y="0" width="98" height="69">
<path d="M0 0.739014H97.2047V68.739H0V0.739014Z" fill="white"/>
</mask>
<g mask="url(#mask0_1621_1044)">
<path fill-rule="evenodd" clip-rule="evenodd" d="M40.3611 8.18355C43.4989 4.91224 47.8665 2.88636 52.6905 2.88636C59.1236 2.88636 64.6981 6.46501 67.7003 11.7979C70.3646 10.6054 73.2507 9.9884 76.1702 9.9907C87.7491 9.9907 97.1476 19.4743 97.1476 31.1771C97.1476 42.8811 87.7491 52.3647 76.1702 52.3647C74.7553 52.3647 73.3748 52.2219 72.0243 51.9537C69.3979 56.642 64.3763 59.827 58.6592 59.827C56.3306 59.8316 54.033 59.3032 51.9399 58.2811C49.278 64.544 43.077 68.9457 35.8589 68.9457C28.3178 68.9457 21.9214 64.1861 19.4549 57.4938C18.3572 57.7252 17.2389 57.8425 16.1171 57.8414C7.14725 57.8414 -0.107666 50.4689 -0.107666 41.4146C-0.107666 35.3301 3.1589 30.033 8.00471 27.1703C6.97716 24.7979 6.44727 22.2403 6.45072 19.6539C6.45072 9.20338 14.9205 0.758057 25.3558 0.758057C31.4659 0.758057 36.9336 3.67484 40.3645 8.20195" fill="#00A1E0"/>
</g>
<path fill-rule="evenodd" clip-rule="evenodd" d="M14.0582 36.1003C13.9972 36.2592 14.08 36.2926 14.0995 36.3213C14.2823 36.4537 14.4673 36.5492 14.6535 36.6574C15.6466 37.1835 16.5833 37.3377 17.5626 37.3377C19.5568 37.3377 20.797 36.2741 20.797 34.5637V34.5303C20.797 32.9476 19.3959 32.3721 18.0879 31.96L17.9166 31.9047C16.927 31.5836 16.073 31.3039 16.073 30.6524V30.619C16.073 30.0607 16.573 29.6487 17.3454 29.6487C18.2028 29.6487 19.2246 29.9353 19.8786 30.2967C19.8786 30.2967 20.0729 30.4222 20.143 30.2345C20.1809 30.1332 20.5142 29.24 20.5499 29.1399C20.5878 29.0351 20.5211 28.9557 20.4533 28.9154C19.7028 28.4573 18.666 28.1454 17.5948 28.1454L17.396 28.1465C15.5696 28.1465 14.2938 29.2515 14.2938 30.8342V30.8676C14.2938 32.5355 15.7018 33.0799 17.0167 33.4552L17.2282 33.5208C18.1856 33.8166 19.0154 34.0722 19.0154 34.7455V34.7789C19.0154 35.3982 18.4752 35.8598 17.6109 35.8598C17.2741 35.8598 16.2029 35.854 15.0409 35.1185C14.9006 35.0368 14.8202 34.978 14.7122 34.9113C14.6547 34.8768 14.5122 34.8146 14.4501 35.0022L14.057 36.0969M43.2537 36.0969C43.1928 36.2569 43.2755 36.2903 43.2962 36.3179C43.4778 36.4503 43.664 36.5469 43.8502 36.654C44.8433 37.18 45.78 37.3343 46.7593 37.3343C48.7535 37.3343 49.9937 36.2718 49.9937 34.5602V34.5268C49.9937 32.9453 48.596 32.3686 47.2846 31.9577L47.1133 31.9024C46.1237 31.5801 45.2697 31.3004 45.2697 30.6489V30.6155C45.2697 30.0573 45.7697 29.6464 46.5421 29.6464C47.3995 29.6464 48.4179 29.9318 49.0753 30.2944C49.0753 30.2944 49.2696 30.4187 49.3397 30.2322C49.3776 30.1309 49.7109 29.2366 49.7431 29.1364C49.7822 29.0317 49.7155 28.9534 49.6465 28.912C48.8972 28.4539 47.8604 28.1431 46.788 28.1431H46.5892C44.7628 28.1431 43.487 29.2492 43.487 30.8308V30.8653C43.487 32.5332 44.895 33.0765 46.2099 33.4529L46.4214 33.5185C47.3823 33.8132 48.2075 34.0699 48.2075 34.7421V34.7766C48.2075 35.3947 47.6685 35.8575 46.803 35.8575C46.4662 35.8575 45.3915 35.8517 44.2341 35.1162C44.0939 35.0345 44.0111 34.978 43.9054 34.909C43.8686 34.886 43.7008 34.8204 43.6433 34.9988L43.2502 36.0946M63.1909 32.7438C63.1909 33.7107 63.0105 34.4727 62.6588 35.0137C62.307 35.5467 61.776 35.808 61.0358 35.808C60.2967 35.808 59.768 35.549 59.4209 35.0172C59.0715 34.4797 58.8956 33.7142 58.8956 32.7484C58.8956 31.7816 59.0727 31.023 59.4209 30.4901C59.7669 29.9594 60.2933 29.7062 61.0358 29.7062C61.7795 29.7062 62.3082 29.9629 62.6588 30.4901C63.0128 31.023 63.1909 31.7816 63.1909 32.7484M64.8564 30.9551C64.692 30.4003 64.438 29.9134 64.0989 29.5059C63.7587 29.0973 63.33 28.7681 62.8197 28.5321C62.3116 28.2939 61.7117 28.1741 61.0324 28.1741C60.3531 28.1741 59.7566 28.295 59.2462 28.5321C58.7382 28.7692 58.306 29.0973 57.9658 29.5059C57.6279 29.9134 57.3727 30.4003 57.2084 30.9551C57.0463 31.5065 56.9635 32.1073 56.9635 32.7484C56.9635 33.3884 57.0463 33.9893 57.2084 34.5407C57.3716 35.0955 57.6267 35.5824 57.9658 35.991C58.306 36.3985 58.7382 36.7242 59.2462 36.9567C59.7566 37.1892 60.3577 37.3067 61.0324 37.3067C61.7082 37.3067 62.3082 37.1892 62.8162 36.9567C63.3231 36.7254 63.7553 36.3985 64.0955 35.991C64.4346 35.5824 64.6886 35.0955 64.8529 34.5407C65.015 33.9893 65.0977 33.3884 65.0977 32.7484C65.0977 32.1108 65.015 31.5065 64.8529 30.9551M78.5398 35.5363C78.4858 35.374 78.3272 35.435 78.3272 35.435C78.0858 35.5283 77.8272 35.6134 77.5525 35.656C77.2743 35.6998 76.9663 35.7216 76.641 35.7216C75.8365 35.7216 75.194 35.4822 74.7365 35.0057C74.2756 34.5303 74.0181 33.7648 74.0216 32.7266C74.0239 31.7816 74.2514 31.0725 74.6606 30.5292C75.0652 29.9917 75.687 29.7131 76.5088 29.7131C77.195 29.7131 77.7203 29.7925 78.2708 29.9652C78.2708 29.9652 78.4007 30.0227 78.464 29.8501C78.6099 29.4461 78.718 29.156 78.8743 28.7117C78.9191 28.5851 78.8099 28.531 78.7708 28.516C78.5547 28.432 78.0444 28.2927 77.6594 28.2352C77.2985 28.1799 76.8801 28.1511 76.4077 28.1511C75.7077 28.1511 75.0859 28.2708 74.5537 28.508C74.0204 28.7451 73.571 29.0743 73.2135 29.4817C72.8561 29.8904 72.5848 30.3761 72.4021 30.9309C72.2216 31.4823 72.1308 32.0877 72.1308 32.7277C72.1308 34.109 72.5021 35.2301 73.2388 36.0497C73.9744 36.8727 75.0825 37.2871 76.5261 37.2871C77.3801 37.2871 78.2559 37.1144 78.8846 36.8646C78.8846 36.8646 79.0053 36.8071 78.9524 36.6667L78.5421 35.5363M81.4547 31.8138C81.534 31.2774 81.6811 30.8296 81.9121 30.482C82.2569 29.9525 82.7833 29.6625 83.5235 29.6625C84.2637 29.6625 84.7523 29.9537 85.1028 30.482C85.335 30.8319 85.4373 31.2947 85.4752 31.8138L81.4363 31.8126L81.4547 31.8138ZM87.0648 30.6328C86.9234 30.0999 86.5717 29.5589 86.343 29.3125C85.9786 28.9223 85.6246 28.6461 85.2706 28.4964C84.7603 28.2789 84.2109 28.1672 83.6557 28.1684C82.9511 28.1684 82.3121 28.2869 81.7937 28.5298C81.2753 28.7738 80.8398 29.1053 80.4961 29.5209C80.1536 29.9364 79.8961 30.4268 79.7317 30.9885C79.5673 31.5433 79.4846 32.1511 79.4846 32.7887C79.4846 33.4402 79.5708 34.0445 79.7398 34.5924C79.911 35.1438 80.1868 35.6261 80.5581 36.0278C80.9305 36.4318 81.4053 36.7472 81.9776 36.9682C82.5454 37.1892 83.2351 37.3032 84.0247 37.3009C85.6545 37.2951 86.512 36.9314 86.8625 36.7346C86.9246 36.7 86.9844 36.639 86.9108 36.4652L86.5419 35.4304C86.4855 35.2762 86.3304 35.3326 86.3304 35.3326C85.9258 35.4834 85.3545 35.755 84.0143 35.7516C83.1385 35.7493 82.4914 35.4903 82.0845 35.0851C81.6696 34.6707 81.4627 34.0653 81.4305 33.2066L87.0763 33.2112C87.0763 33.2112 87.2257 33.2089 87.2407 33.0638C87.2464 33.004 87.4338 31.9047 87.0728 30.634L87.0648 30.6328ZM36.3183 31.8138C36.3976 31.2774 36.5447 30.8296 36.7757 30.482C37.1217 29.9525 37.6481 29.6625 38.3872 29.6625C39.1274 29.6625 39.617 29.9537 39.9664 30.482C40.1986 30.8319 40.3009 31.2947 40.3388 31.8138L36.2999 31.8126L36.3183 31.8138ZM41.9284 30.6328C41.7871 30.0999 41.4354 29.5589 41.2066 29.3125C40.8423 28.9223 40.4883 28.6461 40.1354 28.4964C39.6239 28.2789 39.0745 28.1672 38.5194 28.1684C37.8159 28.1684 37.1757 28.2869 36.6574 28.5298C36.139 28.7738 35.7034 29.1053 35.3609 29.5209C35.0183 29.9364 34.7597 30.4268 34.5953 30.9885C34.4321 31.5433 34.3494 32.1511 34.3494 32.7887C34.3494 33.4402 34.4344 34.0445 34.6045 34.5924C34.7758 35.1438 35.0517 35.6261 35.4195 36.0278C35.7919 36.4318 36.2665 36.7472 36.8389 36.9682C37.4067 37.1892 38.0929 37.3032 38.886 37.3009C40.5158 37.2951 41.3733 36.9314 41.7238 36.7346C41.7859 36.7 41.8457 36.639 41.771 36.4652L41.4032 35.4304C41.3468 35.2762 41.1905 35.3326 41.1905 35.3326C40.7871 35.4834 40.2147 35.755 38.8745 35.7516C38.0033 35.7493 37.3527 35.4903 36.9447 35.0851C36.5309 34.6707 36.3229 34.0653 36.2907 33.2066L41.9376 33.2112C41.9376 33.2112 42.0859 33.2089 42.102 33.0638C42.1077 33.004 42.2951 31.9047 41.933 30.634L41.9284 30.6328ZM24.1313 35.5006C23.9107 35.3234 23.8796 35.2796 23.8061 35.1657C23.6946 34.9919 23.6371 34.7467 23.6371 34.4313C23.6371 33.9375 23.8015 33.5795 24.1417 33.3401C24.1382 33.3401 24.6279 32.9176 25.7784 32.9315C26.2899 32.9407 26.8014 32.9844 27.3082 33.0627V35.6284C27.3082 35.6284 26.5933 35.7826 25.7865 35.831C24.6394 35.9001 24.1314 35.5006 24.1348 35.5018L24.1313 35.5006ZM26.3761 31.5272C26.1474 31.5111 25.8508 31.503 25.4968 31.503C25.0141 31.503 24.5463 31.5629 24.1107 31.6803C23.6705 31.8 23.2739 31.983 22.9348 32.2282C22.5946 32.471 22.3142 32.7899 22.1165 33.1594C21.9165 33.5312 21.8142 33.9674 21.8142 34.4612C21.8142 34.9631 21.9015 35.3959 22.0728 35.7504C22.2406 36.1015 22.4946 36.4054 22.8096 36.6344C23.1222 36.8623 23.5095 37.0315 23.9567 37.1317C24.3992 37.233 24.9003 37.2836 25.4497 37.2836C26.029 37.2836 26.6048 37.2353 27.1623 37.1409C27.637 37.0592 28.1094 36.9671 28.5806 36.8646C28.7691 36.8221 28.9772 36.7645 28.9772 36.7645C29.1174 36.7288 29.1059 36.5803 29.1059 36.5803L29.1024 31.4259C29.1024 30.2955 28.8013 29.4541 28.2059 28.935C27.6128 28.4159 26.7439 28.1546 25.6187 28.1546C25.1968 28.1546 24.5141 28.2121 24.1072 28.2939C24.1072 28.2939 22.8774 28.5333 22.3705 28.9315C22.3705 28.9315 22.259 29.0006 22.3188 29.156L22.7199 30.2299C22.7693 30.3692 22.905 30.3209 22.905 30.3209C22.905 30.3209 22.9475 30.3047 22.9969 30.2748C24.0796 29.6843 25.452 29.7016 25.452 29.7016C26.06 29.7016 26.5313 29.8259 26.8462 30.0665C27.1542 30.3036 27.3106 30.6616 27.3106 31.4132V31.6515C26.8278 31.5813 26.3818 31.541 26.3818 31.541L26.3761 31.5272ZM71.7619 28.6173C71.7699 28.5989 71.7745 28.5782 71.7745 28.5586C71.7745 28.5379 71.7711 28.5171 71.763 28.4987C71.755 28.4792 71.7435 28.4619 71.7285 28.4481C71.7136 28.4331 71.6964 28.4216 71.678 28.4147C71.5814 28.3779 71.1021 28.2766 70.7343 28.2536C70.0263 28.2098 69.6332 28.3295 69.2792 28.4884C68.9298 28.6461 68.5436 28.8993 68.3287 29.1928V28.5056C68.3287 28.4112 68.262 28.3353 68.1666 28.3353H66.723C66.6287 28.3353 66.5609 28.4112 66.5609 28.5056V36.9164C66.5609 36.9613 66.5793 37.0051 66.6115 37.0373C66.6437 37.0695 66.6874 37.0879 66.7322 37.0879H68.2114C68.2574 37.0879 68.3011 37.0695 68.3321 37.0373C68.3643 37.0051 68.3827 36.9613 68.3827 36.9164V32.6932C68.3827 32.128 68.4448 31.5663 68.5689 31.2118C68.6907 30.8607 68.8574 30.5822 69.062 30.3807C69.2574 30.1873 69.4965 30.0435 69.7585 29.9629C70.0056 29.8915 70.2608 29.8558 70.5171 29.8558C70.8114 29.8558 71.1343 29.9318 71.1343 29.9318C71.2435 29.9433 71.3033 29.8777 71.3412 29.7787C71.4377 29.5209 71.7124 28.7485 71.7665 28.5943" fill="#FFFFFE"/>
<path fill-rule="evenodd" clip-rule="evenodd" d="M57.9453 24.7368C57.7625 24.6804 57.5764 24.6366 57.3879 24.6033C57.135 24.5618 56.8787 24.5411 56.6224 24.5446C55.6028 24.5446 54.7983 24.8323 54.2339 25.4021C53.6742 25.9684 53.2926 26.8294 53.1018 27.9632L53.0328 28.3453H51.7524C51.7524 28.3453 51.5961 28.3396 51.5639 28.51L51.3536 29.684C51.3386 29.7957 51.3869 29.8659 51.5375 29.8659H52.7834L51.5191 36.9311C51.4202 37.5009 51.3065 37.9682 51.1812 38.3227C51.0571 38.6738 50.9364 38.9351 50.7881 39.1262C50.6444 39.3104 50.5076 39.4462 50.272 39.5256C50.0778 39.5901 49.8536 39.6211 49.6088 39.6211C49.472 39.6211 49.2904 39.5981 49.1571 39.5705C49.0226 39.544 48.9525 39.5141 48.8525 39.4726C48.8525 39.4726 48.7066 39.4162 48.6491 39.5624C48.602 39.6833 48.2698 40.5972 48.2307 40.71C48.1905 40.8217 48.2468 40.9103 48.318 40.9356C48.4835 40.9943 48.6066 41.0323 48.833 41.0864C49.1468 41.1601 49.4111 41.1647 49.6582 41.1647C50.1778 41.1647 50.6502 41.0922 51.0421 40.9506C51.4363 40.8079 51.78 40.5581 52.0834 40.222C52.4121 39.8583 52.619 39.4784 52.8167 38.9593C53.0121 38.4447 53.1788 37.8059 53.3121 37.0623L54.5822 29.8659H56.4384C56.4384 29.8659 56.5959 29.8717 56.6281 29.7013L56.8385 28.5272C56.8523 28.4156 56.8051 28.3453 56.6546 28.3453H54.8523C54.8604 28.3051 54.9431 27.6697 55.15 27.0723C55.2373 26.8168 55.404 26.6107 55.5442 26.4703C55.6764 26.3356 55.8385 26.2343 56.0167 26.1756C56.2132 26.1146 56.4166 26.0858 56.6224 26.0881C56.7913 26.0881 56.958 26.1088 57.0856 26.1353C57.2603 26.1721 57.3281 26.1917 57.3729 26.2055C57.5568 26.2619 57.5821 26.2078 57.6177 26.118L58.0487 24.9336C58.0936 24.8058 57.9855 24.7517 57.9453 24.7368ZM32.76 36.9461C32.76 37.0404 32.6922 37.1176 32.5979 37.1176H31.1037C31.0083 37.1176 30.9417 37.0404 30.9417 36.9461V24.8968C30.9417 24.8024 31.0083 24.7264 31.1037 24.7264H32.5979C32.6922 24.7264 32.76 24.8024 32.76 24.8968V36.9461Z" fill="#FFFFFE"/>
</svg>
