<svg width="213" height="96" viewBox="0 0 213 96" fill="none" xmlns="http://www.w3.org/2000/svg">
<path d="M90.6409 32.66L99.8866 55.1354C100.277 56.0478 100.452 56.7327 100.413 57.19C100.329 58.1567 99.4523 59.0295 97.7861 59.8083C96.8068 60.2635 96.0489 60.4932 95.5102 60.4932C94.9715 60.4932 94.5413 60.3721 94.2156 60.1299C93.892 59.8877 93.6644 59.6329 93.5349 59.3657C93.4054 59.0963 93.228 58.6954 92.9983 58.1567L91.2193 53.8074H79.7477L77.2192 58.1567C76.8955 58.6933 76.6491 59.0838 76.4758 59.3239C76.3025 59.5661 76.0332 59.8146 75.6657 60.0693C75.2982 60.3241 74.8451 60.4514 74.3085 60.4514C73.7718 60.4514 73.0515 60.2238 72.1516 59.7666C70.6148 59.0149 69.8881 58.1546 69.9717 57.1879C70.0113 56.7306 70.3037 56.0478 70.8528 55.1333L83.976 32.6182C84.333 32.0002 84.8383 31.5053 85.4919 31.1274C86.1454 30.7515 86.8178 30.5636 87.5068 30.5636C88.9976 30.5636 90.0417 31.2631 90.6388 32.6579M86.4524 42.3275L83.2431 47.8461H88.7513L86.4524 42.3275Z" fill="#FF9934"/>
<path d="M99.2331 30.526H122.262C123.145 30.526 123.786 30.6263 124.183 30.8288C124.58 31.0292 124.828 31.3466 124.93 31.7747C125.031 32.2048 125.051 32.7686 124.991 33.466C124.93 34.1654 124.813 34.7208 124.64 35.1364C124.467 35.554 124.206 35.8421 123.861 36.0029C123.343 36.2451 122.629 36.3662 121.717 36.3662H113.805L112.058 56.6262C112.006 57.2442 111.945 57.6994 111.878 57.9959C111.811 58.2903 111.657 58.6349 111.417 59.0232C111.177 59.4137 110.786 59.6872 110.247 59.8501C109.709 60.0109 109.011 60.0923 108.155 60.0923C107.299 60.0923 106.623 60.0109 106.126 59.8501C105.629 59.6893 105.293 59.4137 105.119 59.0232C104.946 58.6349 104.852 58.2841 104.837 57.9751C104.823 57.6681 104.842 57.2046 104.896 56.5865L106.639 36.3662H98.6882C97.8028 36.3662 97.1639 36.266 96.7672 36.0634C96.3705 35.8609 96.122 35.5456 96.0218 35.1176C95.9195 34.6874 95.9007 34.1237 95.9591 33.4263C96.0197 32.7268 96.1366 32.1714 96.3099 31.7538C96.4832 31.3383 96.7442 31.048 97.0887 30.8873C97.6066 30.645 98.3207 30.5239 99.2331 30.5239" fill="#FF9934"/>
<path d="M127.212 34.1111C127.267 33.4931 127.327 33.0296 127.394 32.7205C127.463 32.4115 127.624 32.0565 127.881 31.6536C128.33 30.929 129.438 30.5657 131.205 30.5657C133.136 30.5657 134.241 31.0626 134.514 32.0565C134.612 32.5138 134.621 33.2112 134.541 34.1508L132.61 56.5448C132.554 57.19 132.493 57.6598 132.426 57.9542C132.359 58.2507 132.199 58.5994 131.942 59.0024C131.493 59.7269 130.384 60.0902 128.618 60.0902C126.684 60.0902 125.596 59.5807 125.354 58.5597C125.225 58.1317 125.202 57.4468 125.283 56.5051L127.215 34.1111H127.212Z" fill="#FF9934"/>
<path d="M152.44 30.2024C156.526 30.2024 159.95 31.6389 162.713 34.5121C165.475 37.3852 166.672 40.9494 166.306 45.2048C165.939 49.4622 164.191 53.087 161.061 56.0812C157.931 59.0754 154.267 60.5725 150.072 60.5725C145.877 60.5725 142.434 59.0963 139.747 56.1418C137.062 53.1893 135.894 49.671 136.245 45.589C136.437 43.3611 137.032 41.273 138.028 39.3249C139.024 37.3789 140.269 35.7482 141.764 34.4306C143.257 33.1152 144.933 32.0816 146.794 31.3299C148.654 30.5782 150.536 30.2024 152.442 30.2024M143.593 45.3885C143.386 47.7793 144.013 49.7191 145.472 51.2099C146.932 52.7007 148.642 53.4462 150.602 53.4462C152.563 53.4462 154.392 52.7216 156.092 51.2705C157.791 49.8214 158.746 47.8733 158.957 45.4303C159.167 42.9873 158.541 41.0267 157.082 39.5504C155.62 38.0742 153.91 37.335 151.951 37.335C149.993 37.335 148.159 38.0805 146.458 39.5713C144.756 41.0622 143.802 43.0019 143.595 45.3906" fill="#FF9934"/>
<path d="M189.765 31.7935C190.068 31.3237 190.488 31.0084 191.026 30.8476C191.565 30.6868 192.227 30.6054 193.014 30.6054C193.801 30.6054 194.43 30.6722 194.902 30.8058C195.374 30.9415 195.718 31.1023 195.937 31.2902C196.154 31.4782 196.303 31.76 196.382 32.1359C196.509 32.566 196.534 33.2509 196.453 34.1905L194.526 56.5448C194.469 57.19 194.409 57.6598 194.342 57.9542C194.275 58.2507 194.112 58.5994 193.858 59.0024C193.409 59.7269 192.3 60.0902 190.534 60.0902C189.456 60.0902 188.717 60.0088 188.318 59.848C187.917 59.6872 187.594 59.4325 187.349 59.0838C181.831 51.0282 178.198 45.7644 176.452 43.2942L175.31 56.5468C175.253 57.192 175.193 57.6618 175.126 57.9563C175.059 58.2528 174.898 58.6015 174.642 59.0044C174.193 59.729 173.084 60.0923 171.318 60.0923C169.551 60.0923 168.586 59.729 168.263 59.0044C168.077 58.6015 167.977 58.2381 167.964 57.9166C167.952 57.595 167.97 57.1252 168.025 56.5072L169.962 34.0318C170.05 33.0108 170.246 32.2674 170.549 31.7955C170.852 31.3257 171.272 31.0104 171.81 30.8497C172.349 30.6889 173.032 30.6075 173.861 30.6075C174.69 30.6075 175.337 30.6805 175.809 30.8288C176.279 30.977 176.602 31.1441 176.78 31.332C176.882 31.4134 177.17 31.7621 177.642 32.3802C182.804 40.087 186.257 45.1755 188.005 47.6457L189.178 34.0318C189.266 33.0108 189.462 32.2674 189.765 31.7955" fill="#FF9934"/>
<path d="M34.5714 90.8717C33.9471 90.0386 33.6631 89.2911 33.7216 88.6271C33.778 87.9631 34.4294 87.084 35.676 85.9899C36.3984 85.3656 37.1355 85.0524 37.8851 85.0524C38.6347 85.0524 39.6223 85.7039 40.8501 87.0047C41.1862 87.4474 41.6853 87.8712 42.3472 88.2742C43.0091 88.6772 43.6334 88.8797 44.2222 88.8797C46.7111 88.8797 48.0433 87.89 48.2124 85.9106C48.2646 85.3113 47.966 84.8102 47.3187 84.4072C46.6715 84.0042 45.8446 83.7119 44.8444 83.5282C43.8422 83.3465 42.769 83.0542 41.6268 82.6491C40.4826 82.2461 39.4261 81.7701 38.4572 81.223C37.4863 80.6759 36.7116 79.8115 36.1312 78.6255C35.5507 77.4416 35.3315 76.0155 35.4755 74.3492C35.6739 72.0587 36.7221 70.0605 38.6222 68.3546C40.5223 66.6487 42.9861 65.7968 46.0116 65.7968C47.6173 65.7968 49.0664 65.9993 50.3568 66.4023C51.6472 66.8053 52.5283 67.2166 53.0023 67.6321L53.9419 68.3734C54.7061 69.1292 55.0674 69.7661 55.0214 70.286C54.9755 70.808 54.5934 71.5242 53.873 72.4345C52.8499 73.7375 51.8581 74.3868 50.8934 74.3868C50.3317 74.3868 49.6573 74.1258 48.8722 73.6059C48.7971 73.5537 48.653 73.4243 48.4442 73.2155C48.2333 73.0067 48.0412 72.8375 47.8658 72.7081C47.3334 72.3698 46.6297 72.2007 45.7611 72.2007C44.8925 72.2007 44.1512 72.4032 43.5394 72.8062C42.9277 73.2113 42.5936 73.7688 42.5309 74.485C42.4683 75.2012 42.7606 75.7795 43.4058 76.2222C44.051 76.6649 44.8737 76.9634 45.878 77.12C46.8823 77.2766 47.9723 77.5168 49.1478 77.8425C50.3255 78.1682 51.4008 78.5649 52.378 79.0347C53.3552 79.5025 54.134 80.3168 54.7187 81.4756C55.3012 82.6345 55.5205 84.0606 55.3743 85.7519C55.2281 87.4453 54.7521 88.934 53.944 90.2244C53.1359 91.5127 52.14 92.5087 50.9561 93.2124C48.6697 94.5925 46.2935 95.2816 43.8297 95.2816C42.5706 95.2816 41.393 95.1313 40.2947 94.8327C39.1964 94.5341 38.3173 94.1624 37.6596 93.7198C36.3128 92.8866 35.392 92.0786 34.8972 91.2977L34.5735 90.8675L34.5714 90.8717Z" fill="#118806"/>
<path d="M71.0449 80.5214C74.8116 84.3487 77.4676 87.226 79.0148 89.1533C79.8145 90.1179 80.1883 90.9302 80.1298 91.5942C80.0734 92.2581 79.47 93.0391 78.3216 93.9369C77.1732 94.8347 76.2565 95.2837 75.5738 95.2837C74.891 95.2837 74.1163 94.7366 73.2456 93.6446L65.2548 83.8414L64.5992 91.4563C64.5449 92.0807 64.4864 92.5379 64.4217 92.824C64.357 93.1101 64.2004 93.4483 63.9519 93.8388C63.5155 94.5403 62.4423 94.8932 60.728 94.8932C58.853 94.8932 57.7985 94.3984 57.5626 93.4086C57.4373 92.9931 57.4143 92.3291 57.4937 91.4167L59.3666 69.7013C59.4188 69.1042 59.4773 68.6532 59.542 68.3546C59.6088 68.056 59.7654 67.7094 60.0139 67.3189C60.4482 66.6152 61.5235 66.2645 63.2378 66.2645C65.1107 66.2645 66.1819 66.7468 66.4471 67.7094C66.5431 68.152 66.5515 68.8285 66.4721 69.741L65.829 77.2015C69.8129 73.2176 73.041 69.9498 75.509 67.3983C76.5384 66.3313 77.4008 65.7968 78.0961 65.7968C78.7914 65.7968 79.637 66.2457 80.6309 67.1456C81.6248 68.0434 82.0925 68.8244 82.0362 69.4884C81.9798 70.1523 81.51 70.9395 80.6268 71.852C78.9229 73.5955 76.3067 75.9925 72.7779 79.0389L71.0428 80.5235L71.0449 80.5214Z" fill="#118806"/>
<path d="M85.0304 69.7034C85.0826 69.1042 85.1411 68.6573 85.2058 68.3567C85.2726 68.0581 85.4292 67.7135 85.6777 67.321C86.112 66.6173 87.1873 66.2666 88.9016 66.2666C90.7745 66.2666 91.8457 66.7489 92.1109 67.7115C92.2069 68.1541 92.2153 68.8306 92.1359 69.7431L90.263 91.4584C90.2087 92.0827 90.1502 92.5379 90.0855 92.8261C90.0208 93.1121 89.8642 93.4504 89.6157 93.8409C89.1793 94.5445 88.1061 94.8953 86.3918 94.8953C84.5168 94.8953 83.4623 94.4004 83.2264 93.4107C83.1011 92.9952 83.0781 92.3312 83.1575 91.4188L85.0304 69.7034Z" fill="#118806"/>
<path d="M100.787 89.1136H111.711C112.594 89.1136 113.229 89.2117 113.613 89.4059C113.997 89.6022 114.24 89.907 114.338 90.3246C114.436 90.7422 114.455 91.2956 114.396 91.9846C114.336 92.6737 114.221 93.227 114.052 93.6446C113.883 94.0622 113.63 94.3462 113.296 94.5028C112.763 94.7638 112.058 94.8932 111.174 94.8932H96.717C94.842 94.8932 93.7875 94.3984 93.5516 93.4086C93.4263 92.9931 93.4033 92.3291 93.4827 91.4167L95.3556 69.7013C95.4078 69.1021 95.4663 68.6532 95.531 68.3546C95.5978 68.056 95.7544 67.7094 96.0029 67.3189C96.4372 66.6152 97.5125 66.2645 99.2268 66.2645C101.1 66.2645 102.171 66.7468 102.436 67.7094C102.532 68.152 102.54 68.8285 102.461 69.741L100.791 89.1115L100.787 89.1136Z" fill="#118806"/>
<path d="M124.36 89.1136H135.285C136.168 89.1136 136.803 89.2117 137.187 89.4059C137.571 89.6022 137.813 89.907 137.911 90.3246C138.01 90.7422 138.028 91.2956 137.97 91.9846C137.909 92.6737 137.795 93.227 137.625 93.6446C137.454 94.0622 137.204 94.3462 136.87 94.5028C136.337 94.7638 135.631 94.8932 134.748 94.8932H120.291C118.416 94.8932 117.361 94.3984 117.125 93.4086C117 92.9931 116.977 92.3291 117.056 91.4167L118.929 69.7013C118.982 69.1021 119.04 68.6532 119.105 68.3546C119.172 68.056 119.328 67.7094 119.577 67.3189C120.011 66.6152 121.086 66.2645 122.801 66.2645C124.673 66.2645 125.745 66.7468 126.01 67.7094C126.106 68.152 126.114 68.8285 126.035 69.741L124.364 89.1115L124.36 89.1136Z" fill="#118806"/>
<path d="M161.94 67.321C162.243 66.9055 162.656 66.6173 163.178 66.4628C163.7 66.3062 164.344 66.229 165.106 66.229C165.868 66.229 166.471 66.2937 166.916 66.4252C167.361 66.5568 167.695 66.7113 167.92 66.893C168.146 67.0746 168.296 67.3481 168.371 67.7135C168.492 68.1562 168.515 68.8327 168.436 69.7452L167.419 81.5404C167.123 84.9772 165.755 88.1009 163.318 90.9135C162.132 92.2414 160.66 93.3147 158.904 94.1353C157.146 94.9559 155.244 95.3651 153.196 95.3651C151.147 95.3651 149.322 94.9475 147.721 94.1144C146.119 93.2813 144.854 92.1892 143.927 90.8341C141.996 88.0738 141.181 84.9501 141.482 81.461L142.495 69.7055C142.549 69.0812 142.607 68.6197 142.674 68.3191C142.741 68.0205 142.898 67.6739 143.146 67.2834C143.395 66.893 143.779 66.6194 144.301 66.4628C144.823 66.3062 145.512 66.229 146.37 66.229C147.228 66.229 147.903 66.3062 148.397 66.4628C148.892 66.6194 149.216 66.893 149.37 67.2834C149.64 67.8827 149.73 68.7033 149.64 69.7431L148.629 81.4589C148.493 83.0479 148.763 84.5575 149.444 85.9899C149.782 86.7186 150.333 87.3054 151.099 87.748C151.864 88.1907 152.795 88.412 153.893 88.412C155.847 88.412 157.368 87.7084 158.453 86.3031C159.539 84.8979 160.161 83.2713 160.32 81.4213L161.349 69.4696C161.437 68.4548 161.633 67.7386 161.936 67.321" fill="#118806"/>
<path d="M193.179 72.0462C193.755 73.4264 193.973 74.9631 193.826 76.6544C193.68 78.3478 193.2 79.8762 192.386 81.2439C191.571 82.6115 190.582 83.6994 189.414 84.5053C187.049 86.1716 184.675 87.0047 182.29 87.0047H177.271L176.891 91.4188C176.838 92.018 176.78 92.4669 176.715 92.7655C176.648 93.0662 176.492 93.4107 176.243 93.8012C175.807 94.5048 174.734 94.8556 173.019 94.8556C171.144 94.8556 170.09 94.3733 169.85 93.4107C169.727 92.9681 169.706 92.2915 169.783 91.3791L171.652 69.7034C171.704 69.1042 171.762 68.6552 171.827 68.3567C171.894 68.0581 172.05 67.7135 172.299 67.321C172.733 66.6173 173.809 66.2666 175.523 66.2666H184.117C186.472 66.2666 188.69 67.0997 190.77 68.7659C191.797 69.574 192.599 70.666 193.177 72.0462M185.37 79.2331C186.197 78.661 186.658 77.8007 186.756 76.6544C186.855 75.5102 186.541 74.6437 185.815 74.0569C185.088 73.4702 184.311 73.1779 183.48 73.1779H178.461L177.866 80.0913H182.925C183.729 80.0913 184.543 79.8052 185.368 79.2331" fill="#118806"/>
<path d="M92.825 18.7413L92.6851 3.04151C92.7686 1.96618 92.2424 1.07251 91.1608 0.460726C90.0876 -0.146886 89.0206 -0.153151 88.0747 0.439845L73.9472 8.05483C73.1893 8.43903 72.6485 8.89004 72.3436 9.39742C71.9574 10.0405 72.1223 10.9718 72.8469 12.2455C73.229 12.9303 73.6361 13.3897 74.0892 13.6465C74.6196 13.9472 75.2543 13.9764 75.9998 13.728C76.2482 13.6319 76.5823 13.4732 76.9999 13.2519L79.4366 11.9364L66.6016 33.1402C66.3657 33.5035 66.1798 33.8355 66.0378 34.1404L59.755 44.5178C59.4731 44.9521 59.2601 45.3405 59.114 45.6934L56.9842 49.2117L54.7667 46.184C54.654 46.0295 54.5412 45.8896 54.4285 45.7539C54.3471 45.6245 54.2594 45.4929 54.1591 45.3551L51.6452 41.9245C51.5282 41.7157 51.3883 41.4985 51.2213 41.2709L45.5001 33.4639C44.9197 32.6725 44.3496 32.138 43.7212 31.8164C43.6418 31.7809 43.5604 31.7538 43.4789 31.7287C43.4789 31.7287 43.4581 31.7225 43.4476 31.7204C43.3349 31.6891 43.2179 31.664 43.0989 31.6536C40.0087 31.1712 38.3717 34.2197 38.3717 34.2197C38.3487 34.2573 38.3257 34.2928 38.3007 34.3325L33.9033 41.5967C33.6319 41.8848 33.3542 42.2669 33.0618 42.7472L17.3809 68.649C16.9319 69.338 16.6605 69.9122 16.5498 70.405C16.4141 71.0043 16.5561 71.6119 16.9695 72.2111C17.3349 72.7415 17.9697 73.2697 18.9072 73.8251C19.828 74.3701 20.54 74.6875 21.0871 74.7919C21.2583 74.8232 21.4253 74.8399 21.5882 74.8399C22.035 74.8399 22.4464 74.7167 22.8181 74.4745C23.2503 74.1926 23.7765 73.6164 24.4739 72.6621L29.0925 65.0471C29.2825 64.8154 29.4872 64.5544 29.7127 64.2474L42.6563 42.9038L47.6946 49.7775C47.8032 49.9258 47.9139 50.0636 48.0225 50.1951C48.106 50.3287 48.1979 50.4645 48.3002 50.6064L53.4743 57.666C53.4972 57.6994 53.516 57.7349 53.539 57.7683C53.5954 57.8498 53.658 57.9291 53.7269 58.0084L54.0213 58.4114C54.1508 58.5889 54.2802 58.7518 54.4118 58.9021C54.4118 58.9021 56.0905 61.1634 58.782 60.3094C58.8029 60.3032 58.8237 60.2948 58.8446 60.2886C58.8885 60.274 58.9302 60.2614 58.9741 60.2447V60.2385C59.1161 60.1821 59.2539 60.1173 59.3854 60.0317C59.8197 59.7478 60.3459 59.1715 61.0412 58.2193L76.6679 32.4533C76.8997 32.0398 77.0793 31.6974 77.215 31.4134L82.4642 22.7586C82.6334 22.4559 82.7754 22.1907 82.8944 21.9589L86.634 15.793L86.6528 18.7642C86.6591 19.6266 86.776 20.2634 87.0245 20.7395C87.204 21.0277 87.4692 21.274 87.8158 21.4703C88.152 21.6603 88.697 21.7501 89.5301 21.7501C89.5969 21.7501 89.6658 21.7501 89.7368 21.7501C90.405 21.7292 90.9353 21.6499 91.3654 21.5058C92.0733 21.2573 92.9001 20.5725 92.8124 18.7329" fill="#FF9934"/>
</svg>
